<?xml version="1.0" standalone="no"?><!DOCTYPE svg PUBLIC "-//W3C//DTD SVG 1.1//EN" "http://www.w3.org/Graphics/SVG/1.1/DTD/svg11.dtd"><svg t="1620604127164" class="icon" viewBox="0 0 1024 1024" version="1.1" xmlns="http://www.w3.org/2000/svg" p-id="6168" xmlns:xlink="http://www.w3.org/1999/xlink" width="200" height="200"><defs><style type="text/css"></style></defs><path d="M66.115 557.742a64.502 64.502 0 0 1-48.687-22.17 64.205 64.205 0 0 1-15.754-45.946 64.256 64.256 0 0 1 20.327-43.515l300.764-297.62a80.707 80.707 0 0 1 57.119-23.476c18.19 0 36.07 6.216 50.344 17.505l219.05 173.236 180.93-207.258L727.69 0.036 1022.428 0l-0.102 297.231-98.586-98.677-218.163 241.792a78.607 78.607 0 0 1-58.27 25.902c-18.074 0-35.733-6.318-49.721-17.787L377.533 268.042 110.536 540.006l-0.39 0.354a64.25 64.25 0 0 1-44.031 17.382zM24.8 623.754h122.271V1024H24.802V623.754z" p-id="6169"></path><path d="M301.015 426.276h122.266v597.719H301.015v-597.72z m299.5 133.842h122.27v463.877h-122.27V560.118z m299.5-206.25h122.27V1024h-122.27V353.869z" p-id="6170"></path></svg>